<?xml version="1.0" encoding="utf-8"?>
<!-- Generator: Adobe Illustrator 15.0.0, SVG Export Plug-In . SVG Version: 6.00 Build 0)  -->
<!DOCTYPE svg PUBLIC "-//W3C//DTD SVG 1.1//EN" "http://www.w3.org/Graphics/SVG/1.1/DTD/svg11.dtd">
<svg version="1.1" id="Layer_1" xmlns="http://www.w3.org/2000/svg" xmlns:xlink="http://www.w3.org/1999/xlink" x="0px" y="0px"
	 width="32px" height="32px" viewBox="0 0 32 32" enable-background="new 0 0 32 32" xml:space="preserve">
<path d="M31.993,6.077c-1.177,0.523-2.44,0.876-3.771,1.033c1.355-0.812,2.396-2.098,2.887-3.63
	c-1.269,0.751-2.672,1.299-4.168,1.592C25.744,3.797,24.038,3,22.148,3c-3.625,0-6.562,2.938-6.562,6.563
	c0,0.514,0.057,1.016,0.169,1.496C10.301,10.785,5.465,8.172,2.227,4.201c-0.564,0.97-0.888,2.097-0.888,3.3
	c0,2.278,1.159,4.286,2.919,5.464c-1.075-0.035-2.087-0.329-2.972-0.821c-0.001,0.027-0.001,0.056-0.001,0.082
	c0,3.181,2.262,5.834,5.265,6.437C6,18.813,5.42,18.893,4.821,18.893c-0.424,0-0.834-0.041-1.234-0.117
	c0.834,2.606,3.259,4.504,6.13,4.559c-2.245,1.76-5.075,2.811-8.15,2.811c-0.53,0-1.053-0.031-1.566-0.092
	C2.905,27.913,6.355,29,10.062,29c12.072,0,18.674-10.001,18.674-18.675c0-0.284-0.008-0.568-0.02-0.85
	C30,8.55,31.111,7.395,31.993,6.077z"/>
</svg>
